HIERARCHY
ROOT Hips
{
	OFFSET 0.00000 0.00000 0.00000
	CHANNELS 6 Xposition Yposition Zposition Yrotation Zrotation Xrotation 
	JOINT Lumbar
	{
		OFFSET 0 0 0
		CHANNELS 3 Zrotation Xrotation Yrotation
		JOINT Neck
		{
			OFFSET 0.00 0.2701 0.00
			CHANNELS 3 Zrotation Xrotation Yrotation
			End Site
			{
				OFFSET 0.00 0.1379 0.00
			}
		}
		JOINT RightShoulder
		{
			OFFSET 0.0119 0.2289 0.1181
			CHANNELS 3 Zrotation Xrotation Yrotation
			JOINT RightElbow
			{
				OFFSET 0.00 -0.1475 0.00
				CHANNELS 2 Zrotation Yrotation
				JOINT RightWrist
				{
					OFFSET 0.00 -0.1605 0.00
					CHANNELS 2 Zrotation Xrotation
					End Site
					{
						OFFSET 0.0040 -0.1068 0.0006
					}
				}
			}
		}
		JOINT LeftShoulder
		{
			OFFSET 0.0119 0.2289 -0.1181
			CHANNELS 3 Zrotation Xrotation Yrotation
			JOINT LeftElbow
			{
				OFFSET 0.00 -0.1475 0.00
				CHANNELS 2 Zrotation Yrotation
				JOINT LeftWrist
				{
					OFFSET 0.00 -0.1605 0.00
					CHANNELS 2 Zrotation Xrotation
					End Site
					{
						OFFSET 0.0040 -0.1068 -0.0006
					}
				}
			}
		}
	}
	JOINT RightHip
	{
		OFFSET 0.0316 -0.0424 0.0458
		CHANNELS 3 Zrotation Xrotation Yrotation
		JOINT RightKnee
		{
			OFFSET 0.00 -0.2438 0.00
			CHANNELS 1 Zrotation
			JOINT RightAnkle
			{
				OFFSET 0.00 -0.2449 0.00
				CHANNELS 3 Zrotation Xrotation Yrotation
				End Site
				{
					OFFSET 0.1237 -0.0542 0.0051
				}
			}
		}
	}
	JOINT LeftHip
	{
		OFFSET 0.0316 -0.0424 -0.0458
		CHANNELS 3 Zrotation Xrotation Yrotation
		JOINT LeftKnee
		{
			OFFSET 0.00 -0.2438 0.00
			CHANNELS 1 Zrotation
			JOINT LeftAnkle
			{
				OFFSET 0.00 -0.2449 0.00
				CHANNELS 3 Zrotation Xrotation Yrotation
				End Site
				{
					OFFSET 0.1237 -0.0542 -0.0051
				}
			}
		}
	}
}
MOTION
Frames: 14
Frame Time: 0.02
-0.25446 -0.27131 0.11534 22.56869 1.05189 -5.95702 12.22183 5.48301 -4.10558 -8.83894 -3.67268 -2.11873 24.52359 -29.15435 37.29258 85.69371 80.59515 8.08368 -4.06699 39.67278 23.27125 -38.62783 83.93245 -82.18047 2.79454 2.2811 95.92443 -13.06214 -3.81844 -96.29366 -7.7091 -2.49582 -3.4996 98.40203 12.83729 -0.99155 -95.69441 -8.80521 1.35372 2.99921
-0.25443 -0.27132 0.11539 22.55601 1.02253 -5.93285 12.18796 5.45547 -4.16358 -9.00033 -3.62526 -2.11873 24.5371 -29.18168 37.36273 85.67318 80.44209 7.96158 -4.06863 38.88283 23.39089 -38.85343 83.42989 -82.2095 2.80559 2.2844 95.9677 -13.09149 -3.83567 -96.30892 -7.70446 -2.4918 -3.49722 98.42778 12.80299 -1.01718 -95.7011 -8.79947 1.35883 3.00135
-0.25438 -0.27133 0.11546 22.54658 0.98583 -5.90286 12.16103 5.42487 -4.1988 -9.12257 -3.586 -2.11873 24.55618 -29.21818 37.40777 85.63267 80.25475 7.8409 -4.05152 38.36536 23.60933 -39.1911 82.91018 -82.24539 2.80464 2.30301 96.01818 -13.13003 -3.85447 -96.32268 -7.69966 -2.48723 -3.49463 98.4568 12.75397 -1.04915 -95.70309 -8.79502 1.36481 3.00394
-0.25434 -0.27134 0.11551 22.53609 0.95275 -5.87607 12.1309 5.39679 -4.24471 -9.25761 -3.54598 -2.11874 24.57977 -29.24982 37.46928 85.59791 80.08651 7.71876 -4.04946 37.74607 23.78082 -39.47746 82.39252 -82.2765 2.80996 2.31555 96.06477 -13.16261 -3.87086 -96.33678 -7.69507 -2.48305 -3.49223 98.48409 12.71372 -1.07608 -95.70721 -8.79003 1.37024 3.00627
-0.2543 -0.27135 0.11558 22.5238 0.91823 -5.84696 12.10081 5.36396 -4.28855 -9.4126 -3.49319 -2.11874 24.57255 -29.28627 37.50934 85.57898 79.90258 7.59757 -4.02137 37.03402 23.96508 -39.7661 81.90482 -82.31383 2.8113 2.32477 96.11414 -13.20274 -3.89461 -96.35226 -7.68998 -2.47833 -3.48944 98.51265 12.66475 -1.11224 -95.71132 -8.7849 1.37631 3.00886
-0.25426 -0.27135 0.11563 22.51601 0.88512 -5.82129 12.07229 5.34027 -4.33154 -9.51686 -3.46929 -2.11874 24.63153 -29.31354 37.58828 85.52134 79.7436 7.47612 -4.04163 36.58207 24.1438 -40.07518 81.34791 -82.34006 2.81809 2.34434 96.15928 -13.22938 -3.90346 -96.36449 -7.68588 -2.47459 -3.4874 98.53918 12.63048 -1.13066 -95.71432 -8.78035 1.38126 3.01099
-0.25424 -0.27134 0.11563 22.52028 0.85689 -5.80652 12.04701 5.34285 -4.37769 -9.49445 -3.52058 -2.11874 24.86872 -29.3205 37.77905 85.36522 79.66081 7.34832 -4.21031 36.75483 24.29261 -40.42737 80.60995 -82.33506 2.84525 2.38949 96.19205 -13.21569 -3.86925 -96.36855 -7.68446 -2.47366 -3.48749 98.56024 12.63952 -1.09849 -95.71574 -8.77698 1.38295 3.01174
-0.25422 -0.27132 0.11561 22.52892 0.83051 -5.79544 12.02304 5.35469 -4.42388 -9.42189 -3.60122 -2.11874 25.1731 -29.3162 38.01004 85.16981 79.60465 7.22151 -4.42629 37.18482 24.42984 -40.79353 79.8006 -82.31861 2.87803 2.44439 96.22009 -13.18827 -3.82028 -96.36931 -7.68404 -2.47374 -3.48833 98.57895 12.66394 -1.04833 -95.71614 -8.77415 1.38347 3.01199
-0.2542 -0.27131 0.1156 22.5353 0.80384 -5.78267 11.99803 5.36207 -4.47021 -9.36997 -3.67005 -2.11875 25.44894 -29.31232 38.2238 84.99005 79.53712 7.09801 -4.61376 37.51392 24.56609 -41.14439 79.02 -82.30675 2.90668 2.49424 96.2496 -13.16761 -3.77899 -96.37131 -7.68321 -2.47338 -3.48882 98.59811 12.68201 -1.00631 -95.71676 -8.77112 1.38449 3.01243
-0.25418 -0.27129 0.1156 22.54291 0.77458 -5.76967 11.97491 5.37036 -4.51507 -9.32555 -3.73247 -2.11875 25.71644 -29.32929 38.43255 84.81954 79.46524 6.95858 -4.8302 37.7839 24.73363 -41.53772 78.25658 -82.29755 2.94128 2.54709 96.2823 -13.14497 -3.73347 -96.37435 -7.6822 -2.47294 -3.48935 98.62 12.69719 -0.96431 -95.71821 -8.76796 1.3857 3.01303
-0.25416 -0.27127 0.11558 22.54897 0.75127 -5.75818 11.94837 5.37907 -4.5633 -9.25435 -3.8154 -2.11875 26.01733 -29.29919 38.66126 84.61992 79.40927 6.85265 -4.99778 38.23588 24.83017 -41.84348 77.43802 -82.28022 2.96531 2.59599 96.30705 -13.1232 -3.69345 -96.37447 -7.68181 -2.4729 -3.48997 98.63563 12.72182 -0.91838 -95.71782 -8.76518 1.38622 3.01318
-0.25416 -0.27125 0.11557 22.5497 0.7437 -5.74925 11.90951 5.38598 -4.62094 -9.11973 -3.94521 -2.11875 26.39275 -29.1486 38.93803 84.35595 79.39032 6.83836 -5.01882 39.11455 24.74786 -41.91141 76.50665 -82.24119 2.95623 2.62993 96.31169 -13.10589 -3.67025 -96.36707 -7.68297 -2.47388 -3.49075 98.63442 12.77237 -0.8619 -95.71187 -8.76336 1.38501 3.01208
-0.25416 -0.27123 0.11556 22.5487 0.74211 -5.74185 11.86765 5.39313 -4.68208 -8.96036 -4.09511 -2.11876 26.79958 -28.94957 39.23291 84.06286 79.38675 6.85801 -4.98914 40.16821 24.59123 -41.88862 75.51821 -82.19471 2.93705 2.65974 96.30839 -13.09009 -3.65341 -96.3569 -7.68471 -2.47523 -3.49158 98.62706 12.83137 -0.80275 -95.70425 -8.7619 1.38316 3.01056
-0.25416 -0.27121 0.11554 22.54847 0.73802 -5.73423 11.82879 5.40065 -4.74163 -8.81375 -4.23744 -2.11876 27.19293 -28.76839 39.51799 83.77903 79.37657 6.8623 -4.98283 41.14923 24.45877 -41.90215 74.54154 -82.15294 2.92395 2.69249 96.30816 -13.07447 -3.63502 -96.34818 -7.68611 -2.47632 -3.49233 98.62253 12.88408 -0.74762 -95.6979 -8.76022 1.38169 3.0093
